<svg xmlns="http://www.w3.org/2000/svg" viewBox="0 0 220 154" role="img" aria-labelledby="title">
  <title id="title">Chess thumbnail</title>
  <rect width="220" height="154" rx="14" fill="#1f2937"/>
  <g transform="translate(34 18)">
    <rect width="152" height="118" rx="8" fill="#f3ead7"/>
    <g>
      <rect x="0" y="0" width="19" height="15" fill="#475569"/>
      <rect x="38" y="0" width="19" height="15" fill="#475569"/>
      <rect x="76" y="0" width="19" height="15" fill="#475569"/>
      <rect x="114" y="0" width="19" height="15" fill="#475569"/>
      <rect x="19" y="15" width="19" height="15" fill="#475569"/>
      <rect x="57" y="15" width="19" height="15" fill="#475569"/>
      <rect x="95" y="15" width="19" height="15" fill="#475569"/>
      <rect x="133" y="15" width="19" height="15" fill="#475569"/>
      <rect x="0" y="30" width="19" height="15" fill="#475569"/>
      <rect x="38" y="30" width="19" height="15" fill="#475569"/>
      <rect x="76" y="30" width="19" height="15" fill="#475569"/>
      <rect x="114" y="30" width="19" height="15" fill="#475569"/>
      <rect x="19" y="45" width="19" height="15" fill="#475569"/>
      <rect x="57" y="45" width="19" height="15" fill="#475569"/>
      <rect x="95" y="45" width="19" height="15" fill="#475569"/>
      <rect x="133" y="45" width="19" height="15" fill="#475569"/>
      <rect x="0" y="60" width="19" height="15" fill="#475569"/>
      <rect x="38" y="60" width="19" height="15" fill="#475569"/>
      <rect x="76" y="60" width="19" height="15" fill="#475569"/>
      <rect x="114" y="60" width="19" height="15" fill="#475569"/>
      <rect x="19" y="75" width="19" height="15" fill="#475569"/>
      <rect x="57" y="75" width="19" height="15" fill="#475569"/>
      <rect x="95" y="75" width="19" height="15" fill="#475569"/>
      <rect x="133" y="75" width="19" height="15" fill="#475569"/>
      <rect x="0" y="90" width="19" height="15" fill="#475569"/>
      <rect x="38" y="90" width="19" height="15" fill="#475569"/>
      <rect x="76" y="90" width="19" height="15" fill="#475569"/>
      <rect x="114" y="90" width="19" height="15" fill="#475569"/>
      <rect x="19" y="105" width="19" height="13" fill="#475569"/>
      <rect x="57" y="105" width="19" height="13" fill="#475569"/>
      <rect x="95" y="105" width="19" height="13" fill="#475569"/>
      <rect x="133" y="105" width="19" height="13" fill="#475569"/>
    </g>
  </g>
  <g fill="#050505" stroke="#f8fafc" stroke-width="4" stroke-linejoin="round" stroke-linecap="round">
    <path d="M76 130h68v10H76z"/>
    <path d="M86 115h48l8 15H78z"/>
    <path d="M92 63h36l5 52H87z"/>
    <path d="M83 47h54v18H83z"/>
    <path d="M83 30h13v17H83z"/>
    <path d="M104 30h13v17h-13z"/>
    <path d="M125 30h13v17h-13z"/>
    <path d="M90 65h40"/>
  </g>
</svg>
