<svg xmlns="http://www.w3.org/2000/svg" viewBox="0 0 220 154" role="img" aria-labelledby="title">
  <title id="title">Diplomacy thumbnail</title>
  <rect width="220" height="154" rx="14" fill="#5b3922"/>
  <rect x="10" y="9" width="200" height="136" rx="10" fill="#ead6aa"/>
  <path d="M18 34c29-10 60-8 94 4 30 10 58 7 88-7M19 123c35 8 67 6 96-7 27-11 55-9 84 5" fill="none" stroke="#c19b60" stroke-width="2" opacity="0.62"/>
  <g fill="#c9a86c" stroke="#5b3922" stroke-width="1.55" stroke-linejoin="round" stroke-linecap="round">
    <path d="M202.0 105.0L198.3 104.6L195.4 104.1L195.0 104.5L190.7 101.9L186.8 100.8L183.9 99.0L186.3 98.5L189.2 96.0L187.3 94.8L192.3 93.5L192.2 92.9L189.1 93.4L189.2 92.0L191.0 91.2L194.3 91.0L194.8 89.9L194.1 88.3L195.5 86.7L195.4 85.8L190.4 84.8L188.4 84.8L186.3 83.4L183.7 83.9L179.4 82.8L179.4 82.3L178.2 80.9L175.5 80.8L175.2 79.9L176.1 79.2L173.9 77.5L170.4 77.8L169.3 77.7L168.5 78.4L167.2 78.2L167.2 78.2L166.4 76.3L165.6 75.3L166.2 75.0L169.0 75.1L170.3 74.4L169.3 73.6L167.0 73.1L167.2 72.6L165.8 72.0L163.7 70.0L164.4 69.2L164.1 67.8L160.8 67.1L159.0 67.4L158.5 66.7L154.9 65.9L153.8 64.1L153.5 62.7L151.9 62.0L153.3 61.0L152.3 58.2L154.7 56.4L154.2 55.9L154.2 55.9L158.1 54.2L154.5 52.8L154.5 52.8L161.8 48.9L165.0 47.2L166.3 45.6L161.2 43.6L162.6 41.6L159.6 39.3L161.9 36.7L157.9 33.3L161.0 31.0L155.8 29.0L156.3 26.9L159.1 26.6L164.9 25.4L164.9 25.4L168.4 24.3L174.0 26.2L183.3 26.9L196.2 30.3L198.8 31.8L199.0 33.8L195.2 35.4L189.7 36.2L174.5 33.9L172.0 34.2L177.5 36.5L177.7 37.9L178.0 41.0L182.3 41.9L185.0 42.7L185.4 41.2L183.4 39.9L185.6 38.8L193.8 40.6L196.7 39.9L194.4 37.7L202.0 34.8Z M136.3 71.5L130.1 71.5L125.9 71.2L126.7 69.9L131.4 68.9L134.9 69.4L136.4 69.9L136.1 70.7L136.3 71.5Z M172.8 96.8L173.7 96.0L176.1 96.7L177.2 96.8L177.7 97.4L178.2 97.5L178.2 97.8L179.9 98.5L183.4 98.3L182.7 99.4L179.0 99.9L174.3 101.7L172.4 101.0L173.2 99.6L169.5 98.7L170.1 98.2L173.3 97.2L172.8 96.8Z M164.9 25.4L159.1 26.6L156.3 26.9L157.8 24.8L153.4 23.6L148.1 24.6L146.4 26.8L143.2 28.1L139.5 27.4L135.1 27.6L131.3 26.0L129.2 26.8L127.1 26.9L126.6 28.9L120.2 28.4L119.3 30.1L116.0 30.1L113.8 32.2L110.4 35.6L105.1 39.8L106.3 40.9L105.1 42.1L101.8 42.0L99.5 44.9L99.8 48.9L101.9 50.4L100.8 54.0L98.0 56.0L96.5 57.8L94.2 55.9L87.4 59.4L82.9 60.1L78.2 58.6L77.0 55.3L75.9 48.4L79.0 46.4L88.0 43.9L94.8 40.7L101.0 36.5L109.2 30.7L114.9 28.4L124.3 24.6L131.7 23.3L137.3 23.4L142.5 20.9L148.7 21.1L154.9 20.5L165.5 22.7L161.1 23.5L164.9 25.4Z M80.0 86.2L81.6 87.0L86.5 87.6L84.8 89.6L84.3 91.8L83.4 92.3L81.8 92.0L82.0 92.8L79.5 94.5L79.4 95.9L81.0 95.4L82.2 96.7L82.1 97.6L83.1 98.7L81.9 99.6L82.8 102.0L84.6 102.4L84.2 103.7L81.1 105.4L74.4 104.6L69.5 105.6L69.1 107.4L65.1 107.8L61.3 106.4L60.0 107.1L53.8 105.7L52.4 104.5L54.2 102.7L54.8 96.7L51.3 93.5L48.8 91.9L43.6 90.8L43.2 88.6L47.7 87.9L53.4 88.7L52.3 85.3L55.5 86.6L63.5 84.2L64.5 81.7L67.5 81.1L67.9 82.2L69.5 82.2L71.1 83.4L73.5 84.9L75.2 84.6L78.2 86.0L79.0 86.3L80.0 86.2Z M88.7 106.9L90.9 105.8L91.5 108.3L90.3 110.7L88.8 110.1L88.0 108.0L88.7 106.9Z M96.5 57.8L98.0 56.0L100.8 54.0L101.9 50.4L99.8 48.9L99.5 44.9L101.8 42.0L105.1 42.1L106.3 40.9L105.1 39.8L110.4 35.6L113.8 32.2L116.0 30.1L119.3 30.1L120.2 28.4L126.6 28.9L127.1 26.9L129.2 26.8L133.8 28.2L139.1 30.3L139.2 35.0L140.3 36.1L134.5 37.0L131.2 39.1L131.7 41.0L126.3 43.4L119.7 46.0L117.2 50.3L119.6 52.4L122.9 54.1L119.8 57.5L116.2 58.2L114.9 63.3L113.0 66.1L108.9 65.8L106.9 68.2L103.0 68.4L101.9 65.5L99.1 62.1L96.5 57.8Z M154.9 65.9L158.5 66.7L159.0 67.4L160.8 67.1L164.1 67.8L164.4 69.2L163.7 70.0L165.8 72.0L167.2 72.6L167.0 73.1L169.3 73.6L170.3 74.4L169.0 75.1L166.2 75.0L165.6 75.3L166.4 76.3L167.2 78.2L167.2 78.2L164.3 78.4L163.2 79.1L163.0 80.6L161.6 80.3L158.6 80.5L157.7 79.7L156.4 80.3L155.1 79.8L152.4 79.8L148.6 79.0L145.2 78.8L142.6 78.9L140.7 79.7L139.1 79.8L139.0 78.5L137.9 77.1L140.0 76.4L140.0 75.2L139.1 74.1L138.9 72.8L142.2 72.8L145.9 71.6L146.7 69.9L149.5 69.0L149.2 67.6L151.2 67.1L154.9 65.9Z M167.2 78.2L168.5 78.4L169.3 77.7L170.4 77.8L173.9 77.5L176.1 79.2L175.2 79.9L175.5 80.8L178.2 80.9L179.4 82.3L179.4 82.8L183.7 83.9L186.3 83.4L188.4 84.8L190.4 84.8L195.4 85.8L195.5 86.7L194.1 88.3L194.8 89.9L194.3 91.0L191.0 91.2L189.2 92.0L189.1 93.4L186.4 93.6L184.1 94.6L181.0 94.7L178.0 95.9L178.2 97.5L177.7 97.4L177.2 96.8L176.1 96.7L173.7 96.0L172.8 96.8L172.4 96.5L167.1 95.7L166.8 94.6L163.7 94.9L162.4 96.6L159.8 98.8L158.2 98.3L156.6 98.8L155.1 98.3L155.9 97.9L156.5 96.9L157.5 95.9L157.2 95.4L157.9 95.1L158.3 95.6L160.3 95.6L161.2 95.4L160.6 95.1L160.8 94.7L159.6 93.9L159.1 92.6L157.9 92.1L158.1 91.1L156.6 90.3L155.2 90.2L152.7 89.2L150.4 89.5L149.6 90.0L148.2 90.0L147.3 90.7L144.8 91.0L143.6 91.4L142.0 90.7L139.9 90.7L137.7 90.4L136.3 91.0L136.0 90.2L134.1 89.4L134.8 88.2L135.8 87.4L136.5 87.5L135.6 86.2L138.7 83.7L140.4 83.3L140.8 82.5L139.1 79.8L140.7 79.7L142.6 78.9L145.2 78.8L148.6 79.0L152.4 79.8L155.1 79.8L156.4 80.3L157.7 79.7L158.6 80.5L161.6 80.3L163.0 80.6L163.2 79.1L164.3 78.4L167.2 78.2Z M138.9 72.8L139.1 74.1L140.0 75.2L140.0 76.4L137.9 77.1L139.0 78.5L139.1 79.8L140.8 82.5L140.4 83.3L138.7 83.7L135.6 86.2L136.5 87.5L135.8 87.4L132.5 86.2L130.1 86.6L128.5 86.3L126.4 87.0L124.7 85.9L123.3 86.3L123.1 86.1L121.6 84.6L119.0 84.4L118.7 83.5L116.4 83.2L115.9 83.9L114.0 83.3L114.2 82.5L111.7 82.2L110.1 81.2L108.7 79.3L108.9 78.3L108.1 76.6L106.8 75.6L107.8 74.8L107.0 73.2L109.3 72.3L114.6 70.9L118.9 69.9L122.3 70.4L122.6 71.2L125.9 71.2L130.1 71.5L136.3 71.5L138.1 71.8L138.9 72.8Z M116.7 90.3L116.5 91.5L114.6 91.5L115.2 92.2L114.1 94.1L113.4 94.6L110.5 94.7L108.7 95.4L105.9 95.2L101.1 94.4L100.3 93.3L96.9 93.9L96.5 94.4L94.5 94.0L92.7 93.9L91.2 93.4L91.7 92.6L91.6 92.1L92.6 91.9L94.3 92.8L94.8 92.0L97.8 92.1L100.3 91.5L101.9 91.6L103.0 92.3L103.3 91.7L102.8 89.8L104.0 89.4L105.2 88.0L107.7 89.0L109.7 87.7L110.9 87.5L113.5 88.4L115.1 88.3L116.7 88.8L116.4 89.2L116.7 90.3Z M134.1 89.4L136.0 90.2L136.3 91.0L134.2 91.6L132.6 93.7L130.5 95.7L127.8 96.3L125.7 96.2L123.0 97.0L123.0 97.0L121.8 97.4L119.0 96.8L116.4 95.6L115.3 95.2L114.7 94.2L114.1 94.1L115.2 92.2L114.6 91.5L116.5 91.5L116.7 90.3L118.5 91.0L119.7 91.4L122.6 91.0L122.9 90.4L124.2 90.3L125.9 89.8L126.3 90.0L127.9 89.7L128.7 88.9L129.8 88.8L133.4 89.7L134.1 89.4Z M149.6 90.0L150.4 89.5L152.7 89.2L155.2 90.2L156.6 90.3L158.1 91.1L157.9 92.1L159.1 92.6L159.6 93.9L160.8 94.7L160.6 95.1L161.2 95.4L160.3 95.6L158.3 95.6L157.9 95.1L157.2 95.4L157.5 95.9L156.5 96.9L155.9 97.9L155.1 98.3L154.5 96.9L154.8 95.6L154.7 94.2L152.8 92.4L151.7 91.2L150.6 90.3L149.6 90.0Z M155.1 98.3L156.6 98.8L158.2 98.3L159.8 98.8L159.8 99.6L158.2 100.3L157.2 100.0L156.2 103.6L154.2 103.3L151.7 102.2L147.7 102.9L146.0 103.7L141.0 103.5L138.4 103.1L137.1 103.3L136.1 102.0L135.5 101.5L136.3 101.0L135.4 100.6L134.3 101.3L132.4 100.4L132.1 99.2L130.0 98.5L129.6 97.5L127.8 96.3L130.5 95.7L132.6 93.7L134.2 91.6L136.3 91.0L137.7 90.4L139.9 90.7L142.0 90.7L143.6 91.4L144.8 91.0L147.3 90.7L148.2 90.0L149.6 90.0L150.6 90.3L151.7 91.2L152.8 92.4L154.7 94.2L154.8 95.6L154.5 96.9L155.1 98.3Z M149.2 67.6L149.5 69.0L146.7 69.9L145.9 71.6L142.2 72.8L138.9 72.8L138.1 71.8L136.3 71.5L136.1 70.7L136.4 69.9L134.9 69.4L131.4 68.9L130.6 66.3L134.5 65.4L140.3 65.6L143.6 65.3L144.1 65.9L145.9 66.1L149.2 67.6Z M151.9 62.0L153.5 62.7L153.8 64.1L154.9 65.9L151.2 67.1L149.2 67.6L145.9 66.1L144.1 65.9L143.6 65.3L140.3 65.6L134.5 65.4L130.6 66.3L130.8 64.1L132.4 62.2L135.6 61.1L138.3 63.4L141.1 63.3L141.7 61.0L144.6 60.5L146.1 60.8L149.1 62.0L151.9 62.0Z M154.2 55.9L154.2 55.9L154.7 56.4L152.3 58.2L153.3 61.0L151.9 62.0L149.1 62.0L146.1 60.8L144.6 60.5L141.7 61.0L142.1 59.2L140.9 59.6L138.7 58.5L138.4 56.8L142.7 55.9L147.0 55.5L150.7 56.0L154.2 55.9L154.2 55.9Z M107.0 73.2L107.8 74.8L106.8 75.6L108.1 76.6L108.9 78.3L108.7 79.3L110.1 81.2L108.5 81.6L107.6 81.2L106.8 81.8L104.3 82.4L103.1 83.1L100.6 83.8L101.2 84.7L101.6 86.0L103.3 86.7L105.2 88.0L104.0 89.4L102.8 89.8L103.3 91.7L103.0 92.3L101.9 91.6L100.3 91.5L97.8 92.1L94.8 92.0L94.3 92.8L92.6 91.9L91.6 92.1L87.9 91.2L87.2 91.8L84.3 91.8L84.8 89.6L86.5 87.6L81.6 87.0L80.0 86.2L80.2 84.9L79.5 84.2L79.9 82.2L79.3 79.0L81.3 79.0L82.2 77.8L83.1 75.1L82.4 74.1L83.1 73.4L85.9 73.2L86.6 73.9L88.9 72.4L88.1 71.3L87.9 69.6L90.5 70.0L92.7 69.5L92.8 70.7L96.2 71.4L96.2 72.5L99.6 71.9L101.5 71.1L105.4 72.3L107.0 73.2Z M136.1 102.0L137.1 103.3L138.4 103.1L141.0 103.5L146.0 103.7L147.7 102.9L151.7 102.2L154.2 103.3L156.2 103.6L154.4 104.9L153.2 107.1L154.3 108.8L151.4 108.4L147.9 109.3L147.8 110.8L144.7 111.1L142.3 110.1L139.6 110.9L137.1 110.8L136.9 108.8L135.1 107.8L135.7 107.4L135.3 107.1L135.9 106.1L137.2 105.1L135.6 103.8L135.3 102.7L136.1 102.0Z M148.5 129.1L148.0 130.0L147.8 130.0L143.2 130.0L143.2 129.7L139.0 129.2L139.6 127.9L141.5 128.9L144.2 128.7L146.7 128.9L146.6 129.5L148.5 129.1Z M137.1 110.8L139.6 110.9L142.3 110.1L144.7 111.1L147.8 110.8L147.9 109.3L149.5 110.1L148.5 112.0L147.7 112.4L145.6 112.3L143.8 112.0L139.7 112.8L142.1 114.5L140.3 115.0L138.4 115.0L136.6 113.4L136.0 114.1L136.7 115.9L138.5 117.3L137.2 118.0L139.1 119.4L140.8 120.3L140.8 122.0L137.7 121.2L138.7 122.7L136.5 123.0L137.8 125.7L135.5 125.7L132.7 124.4L131.4 122.0L130.9 120.0L129.5 118.6L127.8 116.9L127.5 116.0L129.1 114.5L129.3 113.5L130.4 113.1L130.5 112.3L132.7 112.0L134.0 111.4L135.9 111.4L136.4 110.9L137.1 110.8Z M202.0 123.4L199.3 123.7L197.5 123.7L193.6 124.8L190.8 124.8L188.9 124.2L185.2 125.1L184.1 124.5L183.9 126.2L183.0 126.9L182.1 127.5L180.8 126.1L182.1 125.0L180.0 125.3L177.2 124.6L174.8 126.3L169.7 126.6L166.9 125.0L163.2 124.9L162.4 126.2L160.1 126.5L156.8 124.9L153.1 125.0L151.1 122.0L148.6 120.3L150.2 117.9L148.1 116.5L151.8 113.6L157.1 113.5L158.5 111.2L165.0 111.6L169.1 109.6L173.1 108.8L178.7 108.7L184.7 110.8L189.6 112.0L193.5 111.5L196.5 111.8L200.5 110.2L202.0 110.2Z M147.9 109.3L151.4 108.4L154.3 108.8L154.7 110.0L157.7 110.9L157.0 111.7L153.0 111.8L151.5 112.8L148.7 114.4L147.6 113.0L147.7 112.4L148.5 112.0L149.5 110.1L147.9 109.3Z M130.5 112.3L130.4 113.1L129.3 113.5L129.1 114.5L127.5 116.0L127.0 115.8L126.9 115.1L125.0 114.1L124.7 112.7L125.0 110.6L125.5 109.7L124.9 109.2L124.9 109.2L124.7 108.2L126.1 106.7L126.4 107.3L127.3 107.0L128.0 107.8L128.8 108.2L129.0 109.2L129.0 109.2L128.6 110.3L129.1 111.6L130.5 112.3Z M115.3 95.2L116.4 95.6L119.0 96.8L121.8 97.4L123.0 97.0L123.9 98.2L125.0 99.0L123.6 100.2L122.1 99.5L119.8 99.5L116.8 99.0L115.2 99.1L114.5 99.7L113.3 99.0L112.6 100.3L114.2 101.7L115.0 102.6L116.5 103.8L117.8 104.4L119.1 105.7L122.1 106.8L121.8 107.4L121.8 107.4L118.6 106.2L116.6 105.1L113.5 104.2L110.6 102.0L111.3 101.8L109.7 100.5L109.7 99.5L107.5 99.0L106.4 100.3L105.4 99.3L105.5 98.3L105.6 98.2L108.0 98.3L108.6 97.8L109.8 98.3L111.1 98.4L111.1 97.5L112.3 97.2L112.6 96.0L115.3 95.2Z M91.6 92.1L91.7 92.6L91.2 93.4L92.7 93.9L94.5 94.0L94.2 95.2L92.7 95.7L90.2 95.4L89.4 96.6L87.8 96.7L87.2 96.2L85.3 97.2L83.7 97.4L82.2 96.7L81.0 95.4L79.4 95.9L79.5 94.5L82.0 92.8L81.8 92.0L83.4 92.3L84.3 91.8L87.2 91.8L87.9 91.2L91.6 92.1Z M79.9 82.2L79.5 84.2L78.6 84.3L78.2 86.0L75.2 84.6L73.5 84.9L71.1 83.4L69.5 82.2L67.9 82.2L67.5 81.1L70.2 80.5L70.2 80.5L70.2 80.5L72.7 80.8L75.8 80.1L78.0 81.5L79.9 82.2Z M82.4 74.1L83.1 75.1L82.2 77.8L81.3 79.0L79.3 79.0L79.9 82.2L78.0 81.5L75.8 80.1L72.7 80.8L70.2 80.5L70.2 80.5L71.9 79.7L74.9 75.2L79.6 74.0L82.4 74.1Z M28.1 109.2L29.3 108.4L30.7 108.0L31.6 109.4L33.6 109.4L34.2 109.1L36.2 109.2L37.1 110.7L35.5 111.5L35.5 113.9L34.9 114.3L34.8 115.7L33.3 116.0L34.7 117.8L33.8 119.8L34.9 120.7L34.5 121.5L33.2 122.6L33.5 123.6L32.1 124.4L30.3 124.0L28.6 124.3L29.1 122.0L28.8 120.1L27.2 119.8L26.4 118.7L26.7 116.7L28.1 115.6L28.3 114.4L29.0 112.6L28.9 111.3L28.3 110.2L28.1 109.2Z M33.5 123.6L33.2 122.6L34.5 121.5L34.9 120.7L33.8 119.8L34.7 117.8L33.3 116.0L34.8 115.7L34.9 114.3L35.5 113.9L35.5 111.5L37.1 110.7L36.2 109.2L34.2 109.1L33.6 109.4L31.6 109.4L30.7 108.0L29.3 108.4L28.1 109.2L28.3 107.0L26.9 105.7L31.7 103.5L35.9 104.1L40.4 104.0L44.1 104.6L46.9 104.4L52.4 104.5L53.8 105.7L60.0 107.1L61.3 106.4L65.1 107.8L69.1 107.4L69.2 109.1L66.0 111.2L61.7 111.8L61.3 112.8L59.3 114.5L57.9 117.0L59.3 118.7L57.3 120.0L56.6 122.0L54.0 122.6L51.6 124.9L47.2 125.0L44.0 124.9L41.9 126.0L40.6 127.1L38.9 126.9L37.6 125.9L36.7 124.1L33.5 123.6Z M37.8 72.9L38.3 75.0L35.8 77.8L29.7 79.5L24.9 79.1L27.7 75.9L25.9 72.8L30.5 70.5L33.1 69.1L33.8 70.7L33.1 72.3L35.2 72.3L37.8 72.9Z M94.5 94.0L96.5 94.4L96.9 93.9L100.3 93.3L101.1 94.4L105.9 95.2L105.6 96.7L106.4 97.9L103.7 97.5L100.9 98.6L101.1 100.1L100.7 100.9L101.8 102.5L105.0 104.0L106.7 106.5L110.5 108.9L113.2 108.9L114.0 109.6L113.0 110.2L116.1 111.3L118.6 112.2L121.5 113.8L121.9 114.4L121.2 115.4L119.3 114.0L116.4 113.5L114.9 115.5L117.4 116.6L117.0 118.2L115.6 118.4L113.8 121.0L112.3 121.2L112.3 120.3L113.0 118.6L113.8 118.0L112.4 116.2L111.4 114.7L110.0 114.3L109.0 113.0L106.8 112.5L105.3 111.3L102.8 111.1L100.1 109.7L97.0 107.7L94.7 106.0L93.6 103.0L91.9 102.6L89.2 101.6L87.6 102.1L85.6 103.5L84.2 103.7L84.6 102.4L82.8 102.0L81.9 99.6L83.1 98.7L82.1 97.6L82.2 96.7L83.7 97.4L85.3 97.2L87.2 96.2L87.8 96.7L89.4 96.6L90.2 95.4L92.7 95.7L94.2 95.2L94.5 94.0Z M109.2 120.5L111.8 120.2L110.5 122.6L111.1 123.5L110.3 125.1L107.7 124.0L106.0 123.6L101.2 122.1L101.7 120.5L105.7 120.8L109.2 120.5Z M88.6 112.1L90.3 111.2L92.3 113.4L91.8 117.4L90.3 117.2L88.9 118.2L87.6 117.4L87.5 113.7L86.7 112.0L88.6 112.1Z M92.7 69.5L90.5 70.0L87.9 69.6L86.6 67.9L86.5 64.8L87.0 64.0L88.0 63.1L91.0 62.9L92.2 62.0L94.9 61.2L94.8 62.8L93.8 63.7L94.2 64.6L96.1 65.0L95.2 66.2L94.2 65.9L91.8 68.0L92.7 69.5Z M101.0 66.1L102.1 67.6L100.1 70.1L96.5 68.4L96.0 67.1L101.0 66.1Z M37.8 72.9L35.2 72.3L33.1 72.3L33.8 70.7L33.1 69.1L35.9 68.9L39.6 70.8L37.8 72.9Z M48.3 74.3L48.4 74.3L48.9 72.5L46.6 70.7L46.5 70.6L42.4 70.1L41.6 69.3L42.8 67.9L41.7 67.1L39.9 68.5L39.7 65.6L37.9 64.1L39.2 60.9L41.8 58.5L44.5 58.7L48.6 58.5L45.0 61.7L48.5 61.3L52.2 61.3L51.3 63.8L48.3 66.5L51.8 66.7L52.1 67.0L55.1 70.6L57.4 71.1L59.5 74.5L60.5 75.7L64.6 76.3L64.2 78.2L62.5 79.1L63.8 80.7L60.8 82.3L56.2 82.2L50.4 83.1L48.8 82.5L46.6 83.9L43.4 83.6L41.0 84.7L39.2 84.1L44.2 80.9L47.3 80.3L47.2 80.3L41.9 79.8L40.9 78.6L44.5 77.6L42.6 76.0L43.3 74.0L48.3 74.3Z M105.9 95.2L108.7 95.4L110.5 94.7L113.4 94.6L114.1 94.1L114.7 94.2L115.3 95.2L112.6 96.0L112.3 97.2L111.1 97.5L111.1 98.4L109.8 98.3L108.6 97.8L108.0 98.3L105.6 98.2L106.4 97.9L105.6 96.7L105.9 95.2Z M156.3 26.9L155.8 29.0L161.0 31.0L157.9 33.3L161.9 36.7L159.6 39.3L162.6 41.6L161.2 43.6L166.3 45.6L165.0 47.2L161.8 48.9L154.5 52.8L154.5 52.8L154.5 52.8L148.4 53.0L142.4 54.2L136.8 54.8L134.8 53.1L131.5 52.1L132.3 49.2L130.6 46.4L132.3 44.7L135.4 42.8L143.2 39.5L145.4 38.9L145.1 37.6L140.3 36.1L139.2 35.0L139.1 30.3L133.8 28.2L129.2 26.8L131.3 26.0L135.1 27.6L139.5 27.4L143.2 28.1L146.4 26.8L148.1 24.6L153.4 23.6L157.8 24.8L156.3 26.9Z M135.8 87.4L134.8 88.2L134.1 89.4L133.4 89.7L129.8 88.8L128.7 88.9L127.9 89.7L126.3 90.0L125.9 89.8L124.2 90.3L122.9 90.4L122.6 91.0L119.7 91.4L118.5 91.0L116.7 90.3L116.4 89.2L116.7 88.8L117.2 88.2L118.7 88.2L119.8 87.9L119.9 87.6L120.6 87.5L120.8 86.8L121.6 86.7L122.1 86.1L123.1 86.1L123.3 86.3L124.7 85.9L126.4 87.0L128.5 86.3L130.1 86.6L132.5 86.2L135.8 87.4Z M110.1 81.2L111.7 82.2L114.2 82.5L114.0 83.3L115.9 83.9L116.4 83.2L118.7 83.5L119.0 84.4L121.6 84.6L123.1 86.1L122.1 86.1L121.6 86.7L120.8 86.8L120.6 87.5L119.9 87.6L119.8 87.9L118.7 88.2L117.2 88.2L116.7 88.8L115.1 88.3L113.5 88.4L110.9 87.5L109.7 87.7L107.7 89.0L105.2 88.0L103.3 86.7L101.6 86.0L101.2 84.7L100.6 83.8L103.1 83.1L104.3 82.4L106.8 81.8L107.6 81.2L108.5 81.6L110.1 81.2Z M122.1 106.8L119.1 105.7L117.8 104.4L116.5 103.8L115.0 102.6L114.2 101.7L112.6 100.3L113.3 99.0L114.5 99.7L115.2 99.1L116.8 99.0L119.8 99.5L122.1 99.5L123.6 100.2L123.6 100.2L124.9 100.1L124.0 101.5L125.7 102.6L125.2 104.1L124.4 104.2L123.7 104.5L122.6 105.2L122.1 106.8Z M123.0 97.0L123.0 97.0L125.7 96.2L127.8 96.3L129.6 97.5L130.0 98.5L132.1 99.2L132.4 100.4L134.3 101.3L135.4 100.6L136.3 101.0L135.5 101.5L136.1 102.0L135.3 102.7L135.6 103.8L137.2 105.1L135.9 106.1L135.3 107.1L135.7 107.4L135.1 107.8L133.6 107.9L132.4 108.1L132.3 107.8L132.7 107.5L133.1 106.7L132.6 106.8L131.9 106.2L131.4 106.1L130.9 105.6L130.3 105.4L129.8 105.0L129.2 105.1L128.7 106.1L127.9 106.4L128.2 106.1L126.9 105.5L125.8 105.1L125.3 104.7L124.4 104.2L125.2 104.1L125.7 102.6L124.0 101.5L124.9 100.1L123.6 100.2L123.6 100.2L125.0 99.0L123.9 98.2L123.0 97.0Z M127.3 107.0L126.4 107.3L126.1 106.7L124.7 108.2L124.9 109.2L124.2 108.9L123.2 108.0L121.8 107.4L122.1 106.8L122.6 105.2L123.7 104.5L124.4 104.2L125.3 104.7L125.8 105.1L126.9 105.5L128.2 106.1L127.9 106.4L127.3 107.0Z M129.0 109.2L128.8 108.2L128.0 107.8L127.3 107.0L127.9 106.4L128.7 106.1L129.2 105.1L129.8 105.0L130.3 105.4L130.9 105.6L131.4 106.1L131.9 106.2L132.6 106.8L133.1 106.7L132.7 107.5L132.3 107.8L132.4 108.1L131.6 108.2L129.6 108.7L129.5 109.3L129.0 109.2Z"/>
  </g>
  <g fill="none" stroke="#7a542f" stroke-width="1.2" stroke-linecap="round" opacity="0.72">
    <path d="M50 95c20-11 39-14 57-9 24 7 46 2 69-12"/>
    <path d="M96 55c-6 18-4 36 6 55M124 52c-7 20-5 39 6 57M151 60c-11 16-14 31-9 45"/>
  </g>
  <g fill="#7f1d1d" stroke="#3f1f12" stroke-width="1.35">
    <path d="M84 80l-5 14h10z"/>
    <path d="M118 79l-5 14h10z"/>
    <path d="M150 100l-5 14h10z"/>
  </g>
  <g transform="translate(185 118)" stroke="#5b3922" stroke-width="1.6" stroke-linecap="round">
    <circle r="15" fill="none"/>
    <path d="M0-13v26M-13 0h26M0-13l5 13-5 13-5-13z" fill="#8a5c33"/>
  </g>
</svg>
