<svg xmlns="http://www.w3.org/2000/svg" viewBox="0 0 220 154" role="img" aria-labelledby="title">
  <title id="title">Werewolf thumbnail</title>
  <rect width="220" height="154" rx="14" fill="#0b1220"/>
  <circle cx="168" cy="34" r="26" fill="#f5d67b"/>
  <circle cx="180" cy="27" r="25" fill="#0b1220"/>
  <path d="M42 154c4-35 20-61 48-78h40c28 17 44 43 48 78z" fill="#252b34"/>
  <g stroke="#111827" stroke-width="4" stroke-linejoin="round" stroke-linecap="round">
    <path d="M65 67l17-40 24 27h8l24-27 17 40 21 20-15 53-31-11-20 16-20-16-31 11-15-53z" fill="#5b6470"/>
    <path d="M81 76l24 13 5-11 5 11 24-13-8 42-21 15-21-15z" fill="#2f3742"/>
    <path d="M84 62l12 16M136 62l-12 16M70 100l20 7M150 100l-20 7" fill="none" opacity="0.65"/>
    <path d="M91 95l19 12 19-12 8 20-27 23-27-23z" fill="#b7bdc4"/>
    <path d="M101 103h18l-9 11z" fill="#0a0a0a"/>
  </g>
  <g>
    <path d="M85 83c8-7 18-7 27 0-8 5-18 5-27 0z" fill="#facc15" stroke="#111827" stroke-width="3"/>
    <path d="M108 83c8-7 18-7 27 0-8 5-18 5-27 0z" fill="#facc15" stroke="#111827" stroke-width="3"/>
    <circle cx="98" cy="83" r="2.5" fill="#ef4444"/>
    <circle cx="122" cy="83" r="2.5" fill="#ef4444"/>
  </g>
  <g fill="#fff7ed" stroke="#111827" stroke-width="2" stroke-linejoin="round">
    <path d="M93 119l6 17 6-17z"/>
    <path d="M115 119l6 17 6-17z"/>
  </g>
</svg>
