<svg xmlns="http://www.w3.org/2000/svg" viewBox="0 0 512 512" role="img" aria-label="Arc Tanks Deluxe thumbnail">
  <rect width="512" height="512" fill="#17243e"/>
  <rect y="246" width="512" height="266" fill="#202a35"/>
  <circle cx="258" cy="146" r="67" fill="#ff5f7e" opacity="0.38"/>
  <circle cx="258" cy="146" r="43" fill="#ffd166" opacity="0.82"/>
  <circle cx="258" cy="146" r="18" fill="#fff7d1"/>
  <path d="M0 342 C50 296 94 303 134 324 C178 348 222 353 264 317 C312 276 356 280 403 319 C439 349 475 361 512 344 L512 512 L0 512 Z" fill="#6ea66b"/>
  <path d="M0 393 C64 368 112 386 168 401 C241 421 306 378 374 388 C430 396 467 418 512 401 L512 512 L0 512 Z" fill="#223927" opacity="0.76"/>
  <g fill="#4cc9f0" stroke="#092036" stroke-width="8" stroke-linejoin="round">
    <path d="M85 312 h92 l30 28 h-154 z"/>
    <rect x="102" y="275" width="58" height="38" rx="12"/>
    <path d="M150 288 l90 -44 l10 20 l-91 43 z"/>
  </g>
  <g fill="#ff5f7e" stroke="#3b1020" stroke-width="8" stroke-linejoin="round">
    <path d="M335 309 h92 l30 28 h-154 z"/>
    <rect x="352" y="272" width="58" height="38" rx="12"/>
    <path d="M362 287 l-88 -41 l-10 20 l90 40 z"/>
  </g>
  <path d="M155 252 C193 188 254 167 329 202" fill="none" stroke="#f7f3d2" stroke-width="8" stroke-linecap="round" stroke-dasharray="15 17"/>
  <g fill="#ffd166">
    <circle cx="232" cy="111" r="8"/>
    <circle cx="292" cy="86" r="5"/>
    <circle cx="330" cy="130" r="6"/>
    <circle cx="194" cy="151" r="5"/>
  </g>
</svg>
