<svg xmlns="http://www.w3.org/2000/svg" viewBox="0 0 220 154" role="img" aria-labelledby="title">
  <title id="title">FightShip thumbnail</title>
  <rect width="220" height="154" rx="14" fill="#082f49"/>
  <g stroke="#38bdf8" stroke-width="2" opacity="0.55">
    <path d="M30 22h160M30 44h160M30 66h160M30 88h160M30 110h160M30 132h160"/>
    <path d="M30 22v110M52 22v110M74 22v110M96 22v110M118 22v110M140 22v110M162 22v110M184 22v110"/>
  </g>
  <g fill="#e0f2fe">
    <rect x="52" y="48" width="66" height="14" rx="7"/>
    <rect x="133" y="94" width="46" height="14" rx="7" transform="rotate(90 156 101)"/>
    <rect x="72" y="104" width="44" height="14" rx="7"/>
  </g>
  <g fill="#fb7185">
    <circle cx="151" cy="55" r="10"/>
    <circle cx="159" cy="55" r="4" fill="#fff7ed"/>
    <path d="M151 34l5 13 14-4-9 12 11 9-14-1-3 14-5-13-14 4 9-12-11-9 14 1z"/>
  </g>
  <path d="M36 83c20-10 42-10 62 0s42 10 62 0 27-10 38-4" fill="none" stroke="#7dd3fc" stroke-width="5" stroke-linecap="round" opacity="0.75"/>
</svg>
