<svg xmlns="http://www.w3.org/2000/svg" viewBox="0 0 220 154" role="img" aria-labelledby="title">
  <title id="title">Euchre thumbnail</title>
  <rect width="220" height="154" rx="14" fill="#1e1b4b"/>
  <circle cx="110" cy="80" r="55" fill="#312e81"/>
  <g transform="translate(69 28)">
    <rect x="0" y="23" width="34" height="54" rx="5" fill="#fff7ed" transform="rotate(-18 17 50)"/>
    <rect x="25" y="8" width="34" height="54" rx="5" fill="#fff7ed" transform="rotate(-6 42 35)"/>
    <rect x="50" y="8" width="34" height="54" rx="5" fill="#fff7ed" transform="rotate(6 67 35)"/>
    <rect x="75" y="23" width="34" height="54" rx="5" fill="#fff7ed" transform="rotate(18 92 50)"/>
    <text x="35" y="43" font-size="20" font-family="Arial, sans-serif" font-weight="700" fill="#111827">J</text>
    <text x="60" y="43" font-size="20" font-family="Arial, sans-serif" font-weight="700" fill="#dc2626">J</text>
  </g>
  <path d="M102 101l8-13 8 13 15 4-10 11 1 15-14-6-14 6 1-15-10-11z" fill="#fbbf24"/>
  <circle cx="60" cy="101" r="10" fill="#ef4444"/>
  <circle cx="160" cy="101" r="10" fill="#38bdf8"/>
</svg>
